Coordinates
version=1
nRows=13
nColumns=30
inDegrees=yes

Units are S.I. units (second, meters, Newtons, ...)
Angles are in degrees.

endheader
time	floatyaw	floatroll	floatpitch	floatx	floaty	floatz	pro_sup_l	deviation_l	flexion_l	cmc_flexion_l	cmc_abduction_l	mp_flexion_l	ip_flexion_l	2mcp_flexion_l	2mcp_abduction_l	2pm_flexion_l	2md_flexion_l	3mcp_flexion_l	3mcp_abduction_l	3pm_flexion_l	3md_flexion_l	4mcp_flexion_l	4mcp_abduction_l	4pm_flexion_l	4md_flexion_l	5mcp_flexion_l	5mcp_abduction_l	5pm_flexion_l	5md_flexion_l
-0.995000	-0.679314	-3.115271	87.889519	-0.010892	-0.229004	0.004775	87.544189	-0.327554	-5.190948	27.488378	0.713917	-18.982612	-34.234706	16.130477	6.051346	34.422493	20.740437	4.174243	4.111445	38.160693	21.302122	-7.707193	-3.144496	56.809086	28.479972	-25.441862	-8.374931	65.981730	39.018812
-0.985000	-0.679314	-3.115271	87.889519	-0.010919	-0.228966	0.004777	87.582182	-0.329924	-5.203165	27.537059	0.664772	-18.962985	-34.272531	16.210894	6.056994	34.314644	20.713577	4.282222	4.111615	38.042748	21.283311	-7.577660	-3.129384	56.627982	28.494617	-25.393575	-8.354136	65.912650	39.085968
-0.975000	-0.679314	-3.115271	87.889519	-0.010930	-0.228928	0.004758	87.604985	-0.323833	-5.214791	27.564142	0.639792	-18.946118	-34.297009	16.305082	6.054371	34.202993	20.691380	4.363001	4.106257	37.962788	21.292283	-7.460664	-3.116039	56.483950	28.538337	-25.349912	-8.330022	65.882006	39.169442
-0.965000	-0.679314	-3.115271	87.889519	-0.010917	-0.228891	0.004716	87.607689	-0.307589	-5.220888	27.563410	0.647451	-18.939604	-34.305212	16.386381	6.042780	34.117801	20.689801	4.391240	4.096836	37.949341	21.337323	-7.378037	-3.109298	56.403184	28.611734	-25.325728	-8.308021	65.911865	39.261117
-0.955000	-0.679314	-3.115271	87.889519	-0.010877	-0.228851	0.004655	87.596807	-0.281268	-5.217866	27.536533	0.679768	-18.944035	-34.294231	16.428210	6.025393	34.085805	20.718974	4.356137	4.085540	38.015276	21.414840	-7.342038	-3.111659	56.399703	28.705153	-25.329028	-8.291776	66.017001	39.351815
-0.945000	-0.679314	-3.115271	87.889519	-0.010817	-0.228806	0.004582	87.586580	-0.247850	-5.205393	27.491178	0.717611	-18.952150	-34.258129	16.414008	6.008475	34.122160	20.777178	4.265955	4.075148	38.152877	21.508127	-7.354406	-3.123351	56.473803	28.799505	-25.361101	-8.280908	66.197625	39.430804
-0.935000	-0.679314	-3.115271	87.889519	-0.010746	-0.228760	0.004506	87.590995	-0.213364	-5.186714	27.439297	0.742006	-18.952676	-34.190588	16.342388	5.999346	34.227847	20.850285	4.143087	4.068521	38.339143	21.591576	-7.411384	-3.143066	56.617695	28.870051	-25.420842	-8.272349	66.438159	39.482537
-0.925000	-0.679314	-3.115271	87.889519	-0.010679	-0.228723	0.004437	87.616461	-0.185715	-5.167392	27.396290	0.744279	-18.936870	-34.092587	16.225766	6.004008	34.391443	20.917154	4.013673	4.067549	38.545905	21.639194	-7.509038	-3.168346	56.821438	28.892933	-25.509480	-8.264264	66.712337	39.487258
-0.915000	-0.679314	-3.115271	87.889519	-0.010624	-0.228707	0.004383	87.659662	-0.172241	-5.153274	27.379662	0.729099	-18.904004	-33.979776	16.084247	6.025180	34.592816	20.958695	3.898223	4.071870	38.747995	21.634262	-7.643243	-3.195512	57.072974	28.852889	-25.631291	-8.259728	66.992687	39.429605
-0.905000	-0.679314	-3.115271	87.889519	-0.010587	-0.228721	0.004354	87.711387	-0.176738	-5.148369	27.404846	0.709614	-18.862457	-33.882182	15.938636	6.061103	34.806882	20.966514	3.807345	4.078349	38.926595	21.576398	-7.804353	-3.219884	57.352805	28.749426	-25.787947	-8.267671	67.259016	39.310531
-0.895000	-0.679314	-3.115271	87.889519	-0.010561	-0.228758	0.004364	87.762799	-0.197275	-5.152823	27.477336	0.699172	-18.825481	-33.832189	15.806259	6.105307	35.006594	20.946866	3.742546	4.082232	39.069175	21.483067	-7.972764	-3.236747	57.629983	28.599050	-25.968263	-8.300330	67.498469	39.151736
-0.885000	-0.679314	-3.115271	87.889519	-0.010535	-0.228794	0.004429	87.809041	-0.226084	-5.161258	27.583970	0.705420	-18.803747	-33.844699	15.701280	6.147614	35.165160	20.917285	3.700191	4.079874	39.168335	21.384185	-8.121480	-3.242674	57.865673	28.432165	-26.139496	-8.367916	67.694775	38.985842
-0.875000	-0.679314	-3.115271	87.889519	-0.010494	-0.228792	0.004562	87.847662	-0.251772	-5.162489	27.689392	0.729311	-18.798816	-33.901048	15.637907	6.176637	35.257947	20.896479	3.676600	4.071439	39.220364	21.310726	-8.225245	-3.236409	58.023874	28.284201	-26.248090	-8.472078	67.815209	38.836918
